<?xml version="1.0" encoding="utf-8"?>
<!-- Generator: Adobe Illustrator 24.0.2, SVG Export Plug-In . SVG Version: 6.00 Build 0)  -->
<svg version="1.1" preserveAspectRatio="none" id="Ebene_1" xmlns="http://www.w3.org/2000/svg"
    xmlns:xlink="http://www.w3.org/1999/xlink" x="0px" y="0px" width="873" height="100%" viewBox="0 0 873 507"
    style="enable-background:new 0 0 873 507;" xml:space="preserve">
    <style type="text/css">
        .bgColor {
            fill: #f8f8f0;
        }

        .borderColor {
            fill: #5ac591;
        }
    </style>
    <g id="red">
        <path class="borderColor" d="M809.747,62.268C745.936,20.435,596.782,2,436.5,2C276.218,2,127.063,20.435,63.253,62.268
		C7.969,98.512-7.615,175.398,9.738,226.637c8.642,25.519,14.325,39.821,21.477,55.261c9.924,21.422,13.667,33.542,7.664,68.777
		l-0.196,1.149c-4.061,23.813,0.09,45.971,11.181,69.031c12.417,25.814,35.845,45.2,84.557,61.057
		c81.056,26.387,226.451,23.041,302.08,22.856c75.629,0.185,221.024,3.531,302.08-22.856c48.712-15.858,72.141-35.243,84.557-61.057
		c11.091-23.06,15.242-45.219,11.181-69.031l-0.196-1.149c-6.003-35.235-2.26-47.356,7.664-68.777
		c7.153-15.44,12.835-29.742,21.477-55.261C880.615,175.398,865.031,98.512,809.747,62.268z" />
        <path class="bgColor" d="M794.387,67.591C733.374,26.922,590.757,9,437.5,9C284.243,9,141.626,26.922,80.612,67.591
		c-52.861,35.235-67.762,109.981-51.17,159.794c8.263,24.809,13.697,38.713,20.536,53.723c9.489,20.825,13.068,32.609,7.328,66.863
		l-0.187,1.117c-3.883,23.15,0.086,44.692,10.691,67.11c11.872,25.096,34.274,43.942,80.851,59.358
		c77.503,25.652,216.526,22.4,288.84,22.22c72.314,0.18,211.337,3.432,288.84-22.22c46.577-15.416,68.979-34.262,80.851-59.358
		c10.605-22.418,14.574-43.96,10.691-67.11l-0.187-1.117c-5.74-34.254-2.161-46.038,7.328-66.863
		c6.839-15.01,12.273-28.914,20.536-53.723C862.149,177.572,847.249,102.826,794.387,67.591z" />
    </g>
</svg>